<?xml version="1.0" encoding="utf-8"?>
<!-- Generator: Adobe Illustrator 21.0.2, SVG Export Plug-In . SVG Version: 6.00 Build 0)  -->
<svg version="1.1" id="Layer_1" xmlns="http://www.w3.org/2000/svg" xmlns:xlink="http://www.w3.org/1999/xlink" x="0px" y="0px"
	 viewBox="0 0 100 100" style="enable-background:new 0 0 100 100;" xml:space="preserve">
<style type="text/css">
	.st0{fill:#5A5A5A;}
</style>
<g>
	<path class="st0" d="M84.2,12.6h-6.6V9.1c0-3.4-2.7-6.1-6.1-6.1s-6.1,2.7-6.1,6.1v3.5H34.6V9.1c0-3.4-2.7-6.1-6.1-6.1
		s-6.1,2.7-6.1,6.1v3.5h-6.6c-6.1,0-11.1,5-11.1,11.1v5.7h90.7v-5.7C95.3,17.5,90.4,12.6,84.2,12.6z"/>
	<path class="st0" d="M4.7,86.9C4.7,93,9.7,98,15.8,98h68.5c6.1,0,11.1-5,11.1-11.1V36.4H4.7V86.9z M64.2,55.3
		c0-1.1,0.9-1.9,1.9-1.9h9.1c1.1,0,1.9,0.9,1.9,1.9v6c0,1.1-0.9,1.9-1.9,1.9h-9.1c-1.1,0-1.9-0.9-1.9-1.9V55.3z M64.2,73.1
		c0-1.1,0.9-1.9,1.9-1.9h9.1c1.1,0,1.9,0.9,1.9,1.9v6c0,1.1-0.9,1.9-1.9,1.9h-9.1c-1.1,0-1.9-0.9-1.9-1.9V73.1z M43.5,55.3
		c0-1.1,0.9-1.9,1.9-1.9h9.1c1.1,0,1.9,0.9,1.9,1.9v6c0,1.1-0.9,1.9-1.9,1.9h-9.1c-1.1,0-1.9-0.9-1.9-1.9V55.3z M43.5,73.1
		c0-1.1,0.9-1.9,1.9-1.9h9.1c1.1,0,1.9,0.9,1.9,1.9v6c0,1.1-0.9,1.9-1.9,1.9h-9.1c-1.1,0-1.9-0.9-1.9-1.9V73.1z M22.9,55.3
		c0-1.1,0.9-1.9,1.9-1.9h9.1c1.1,0,1.9,0.9,1.9,1.9v6c0,1.1-0.9,1.9-1.9,1.9h-9.1c-1.1,0-1.9-0.9-1.9-1.9L22.9,55.3z M22.9,73.1
		c0-1.1,0.9-1.9,1.9-1.9h9.1c1.1,0,1.9,0.9,1.9,1.9v6c0,1.1-0.9,1.9-1.9,1.9h-9.1c-1.1,0-1.9-0.9-1.9-1.9L22.9,73.1z"/>
</g>
</svg>
