<?xml version="1.0" encoding="utf-8"?>
<!-- Generator: Adobe Illustrator 21.0.2, SVG Export Plug-In . SVG Version: 6.00 Build 0)  -->
<svg version="1.1" id="Layer_1" xmlns="http://www.w3.org/2000/svg" xmlns:xlink="http://www.w3.org/1999/xlink" x="0px" y="0px"
	 viewBox="0 0 100 100" style="enable-background:new 0 0 100 100;" xml:space="preserve">
<style type="text/css">
	.st0{fill:#5A5A5A;}
</style>
<g>
	<path class="st0" d="M19.4,74.5c0.7,0.3,1.3,0.5,1.9,0.5c0.9,0,1.7-0.4,2.3-1c0.5-0.5,0.9-1.5,0.7-3.1l-0.7-4.3l3.2-3.1
		c1.1-1.1,1.5-2.4,1.1-3.6c-0.4-1.2-1.5-2-3-2.2l-4.4-0.6l-2-3.9c-0.7-1.4-1.8-2.2-3-2.2c-1.3,0-2.4,0.8-3,2.2l-2,3.9l-4.4,0.6
		c-1.5,0.2-2.6,1-3,2.2c-0.4,1.2,0,2.5,1.1,3.6l3.2,3.1l-0.7,4.3c-0.3,1.5,0.2,2.5,0.7,3.1c1,1.1,2.6,1.4,4.2,0.5l3.9-2L19.4,74.5z"
		/>
	<path class="st0" d="M93.9,57.7l-4.4-0.6l-2-3.9c-0.7-1.4-1.8-2.2-3-2.2c-1.3,0-2.4,0.8-3,2.2l-2,3.9l-4.4,0.6
		c-1.5,0.2-2.6,1-3,2.2c-0.4,1.2,0,2.5,1.1,3.6l3.2,3.1l-0.7,4.3c-0.3,1.5,0.2,2.5,0.7,3.1c1,1.1,2.6,1.4,4.2,0.5l3.9-2l3.9,2
		c0.7,0.3,1.3,0.5,1.9,0.5c0.9,0,1.7-0.4,2.3-1c0.5-0.5,0.9-1.5,0.7-3.1l-0.7-4.3l3.2-3.1c1.1-1.1,1.5-2.4,1.1-3.6
		C96.5,58.8,95.4,58,93.9,57.7z"/>
	<path class="st0" d="M50,40c9.4,0,17-7.6,17-17c0-9.4-7.6-17-17-17c-9.4,0-17,7.6-17,17C33,32.4,40.6,40,50,40z"/>
	<path class="st0" d="M61.2,82.3l5.3-5.4c1.4-1.4,1.9-3,1.4-4.5C67.3,71,66,70,64.1,69.8l-7.2-1.1l-3.2-6.9c-1.2-2.5-3-2.8-3.7-2.8
		c-0.7,0-2.5,0.3-3.7,2.8l-3.2,6.9l-7.2,1.1C34,70,32.7,71,32.2,72.5c-0.5,1.4,0,3.1,1.4,4.5l5.3,5.4l-1.2,7.6
		c-0.3,2,0.3,3.3,0.8,3.9c1.2,1.4,3.2,1.6,5.2,0.5l6.4-3.5l6.4,3.5c0.9,0.5,1.7,0.7,2.5,0.7c1.1,0,2-0.4,2.7-1.2
		c0.6-0.7,1.2-1.9,0.8-3.9L61.2,82.3z"/>
</g>
<g>
	<path class="st0" d="M22.1,51.4l1,2.1l2.3,0.3c3,0.4,5.4,2.3,6.2,4.9c0.9,2.7,0.1,5.5-2.1,7.7L27.9,68l0.4,2.3
		c0.1,0.3,0.1,0.7,0.1,1c0,0,0,0,0,0c1-2.9,3.5-4.9,6.9-5.4l5.1-0.8l2.3-4.9c1.5-3.2,4.2-5.1,7.3-5.1c3.1,0,5.8,1.9,7.3,5.1l2.3,4.9
		l5.1,0.8c3.4,0.5,5.9,2.5,6.9,5.4c0,0,0,0,0,0c0-0.3,0.1-0.6,0.1-1l0.4-2.3l-1.6-1.6c-2.2-2.1-3-5-2.1-7.7c0.9-2.7,3.2-4.5,6.2-4.9
		l2.3-0.3l1-2.1c0.4-0.8,0.9-1.5,1.5-2.1c-3.2-4.9-7.9-9-14.7-11.3c-3.8,3.7-9,6-14.7,6c-5.8,0-11.1-2.4-14.9-6.2
		C28.3,40,23.5,44,20.3,49C21,49.6,21.7,50.4,22.1,51.4z"/>
	<path class="st0" d="M84.5,76.9L82.4,78c-3.3,1.7-7,1-9.2-1.5c-0.6-0.7-1-1.6-1.3-2.5c-0.1,2-1.1,4-2.7,5.6l-3.8,3.9l0,0.2h15.3
		c2.7,0,5.1-2.2,5.2-4.9c0-0.4,0-0.8,0-1.3L84.5,76.9z"/>
	<path class="st0" d="M34.6,83.6l-3.8-3.9c-1.6-1.7-2.5-3.6-2.7-5.6c-0.3,0.9-0.7,1.7-1.3,2.5c-1.3,1.6-3.3,2.5-5.4,2.5
		c-1.3,0-2.6-0.3-3.8-1l-2.1-1.1L14,77.7c0,0.4,0,0.8,0,1.3c0.1,2.7,2.4,4.9,5.2,4.9h15.3L34.6,83.6z"/>
</g>
</svg>
