<svg width="17" height="15" viewBox="0 0 17 15" fill="none" xmlns="http://www.w3.org/2000/svg">
<path d="M12.6367 10.8044H11.4278C11.3333 10.8044 11.2578 10.88 11.2578 10.9744V12.4289C11.2578 12.5233 11.1822 12.5989 11.0878 12.5989H1.73778C1.64333 12.5989 1.56778 12.5233 1.56778 12.4289V5.06222C1.56778 4.96778 1.64333 4.89222 1.73778 4.89222H11.0878C11.1822 4.89222 11.2578 4.96778 11.2578 5.06222V6.19556C11.2578 6.29 11.3333 6.36556 11.4278 6.36556H12.6367C12.7311 6.36556 12.8067 6.29 12.8067 6.19556V1.45444C12.8067 1.36 12.7311 1.28444 12.6367 1.28444H10.4456V0.17C10.4456 0.0755557 10.37 0 10.2756 0H9.10444C9.01 0 8.93444 0.0755557 8.93444 0.17V1.28444H3.89111V0.17C3.89111 0.0755557 3.81556 0 3.72111 0H2.55C2.45556 0 2.38 0.0755557 2.38 0.17V1.28444H0.17C0.0755556 1.28444 0 1.36 0 1.45444V13.9211C0 14.0156 0.0755556 14.0911 0.17 14.0911H12.6367C12.7311 14.0911 12.8067 14.0156 12.8067 13.9211V10.9744C12.8067 10.88 12.7311 10.8044 12.6367 10.8044Z" fill="#5A5A5A"/>
<path d="M16.9999 8.57559L14.7144 6.29004V7.80115H8.93436H8.76436C8.66992 7.80115 8.59436 7.87671 8.59436 7.97115V9.16115C8.59436 9.2556 8.66992 9.33115 8.76436 9.33115H9.63325H14.7144V10.8423L16.9999 8.57559Z" fill="#5A5A5A"/>
</svg>
