<?xml version="1.0" encoding="utf-8"?>
<!-- Generator: Adobe Illustrator 21.0.2, SVG Export Plug-In . SVG Version: 6.00 Build 0)  -->
<svg version="1.1" id="Layer_1" xmlns="http://www.w3.org/2000/svg" xmlns:xlink="http://www.w3.org/1999/xlink" x="0px" y="0px"
	 viewBox="0 0 100 100" style="enable-background:new 0 0 100 100;" xml:space="preserve">
<style type="text/css">
	.st0{fill:#5A5A5A;}
</style>
<g>
	<path class="st0" d="M33.5,18.5c0,0.7,0,1.2,0,1.8c0.1,3.8-0.2,7.6,0.4,11.4c1.2,7.8,8.5,13.5,16.4,13.3
		c7.9-0.2,14.9-6.3,15.7-14.1c0.4-3.5,0.2-7.1,0.2-10.7c0-0.5,0-1,0-1.6c0.8,0,1.5,0,2.3,0c3.9,0,7.8,0,11.7,0c5.4,0,9.5,4,9.5,9.5
		c0,23.1,0,37.8,0,60.9c0,5.4-4.1,9.4-9.5,9.4c-20.2,0-40.3,0-60.5,0c-5.5,0-9.5-4.1-9.5-9.6c0-21.8,0-35.2,0-57c0-1.4,0-2.8,0-4.2
		c0.2-4.8,3.8-8.8,8.6-9C23.7,18.3,28.5,18.5,33.5,18.5z M70.8,86.3c0-1.3-0.1-2.6,0-3.9c0.2-2.2-0.7-4-2.3-5.4
		c-3.5-3.1-7.6-5.1-12.3-5.6c-3.8-0.4-7.7-0.4-11.6-0.1c-4.9,0.3-9.2,2.3-12.9,5.4c-1.2,1-2.3,2.2-2.5,3.8c-0.2,1.9,0,3.8,0,5.8
		C43.1,86.3,56.9,86.3,70.8,86.3z M49.9,70.2c5.7,0.1,10.5-4.5,10.7-10.3C60.7,54,56.1,49.1,50.3,49c-6-0.1-10.8,4.5-10.9,10.4
		C39.3,65.3,43.9,70.1,49.9,70.2z"/>
	<path class="st0" d="M61.4,21c0,3,0.2,6,0,9C61,35.6,56,40,50.2,40.2c-5.6,0.2-10.8-3.9-11.8-9.4c0-0.2-0.1-0.4-0.1-0.6
		c0-6.4-0.3-12.8,0.2-19.1c0.5-5.5,6.2-9.7,11.8-9.4C56,1.9,61,6.4,61.4,12C61.6,15,61.4,18,61.4,21C61.4,21,61.4,21,61.4,21z
		 M50.1,19.6c3.2,0,5.8-2.7,5.8-5.9c-0.1-3.2-2.7-5.8-5.8-5.8c-3.3,0-5.9,2.7-5.9,5.9C44.2,17.1,46.8,19.6,50.1,19.6z"/>
</g>
</svg>
