<?xml version="1.0" encoding="utf-8"?>
<!-- Generator: Adobe Illustrator 21.0.2, SVG Export Plug-In . SVG Version: 6.00 Build 0)  -->
<svg version="1.1" id="Layer_1" xmlns="http://www.w3.org/2000/svg" xmlns:xlink="http://www.w3.org/1999/xlink" x="0px" y="0px"
	 viewBox="0 0 100 100" style="enable-background:new 0 0 100 100;" xml:space="preserve">
<style type="text/css">
	.st0{fill:#5A5A5A;}
</style>
<g>
	<path class="st0" d="M50.2,23.1c-6.2,0-11.2,5-11.2,11.2s5,11.2,11.2,11.2s11.2-5,11.2-11.2S56.4,23.1,50.2,23.1z M50.2,2
		C25.6,2,10.5,27.9,21.3,49c5.6,10.8,21.2,25.5,28.9,34.1C57.1,75,74,59,79.1,48.2C89.1,27,74,2,50.2,2z M50.2,54.2
		c-11.2,0-20.3-9.1-20.3-19.9c0-11.2,9.1-20.3,20.3-20.3c10.8,0,19.9,9.1,19.9,20.3C70.1,45.2,61,54.2,50.2,54.2z M50.2,23.1
		c-6.2,0-11.2,5-11.2,11.2s5,11.2,11.2,11.2s11.2-5,11.2-11.2S56.4,23.1,50.2,23.1z"/>
	<circle class="st0" cx="50.2" cy="34.4" r="11.2"/>
	<path class="st0" d="M77,66.3c1.3,0,2.2,0.4,2.6,1.7L96,94c1.3,1.7,0,4.3-2.6,4.3H6.6c-2.6,0-3.9-2.6-2.6-4.8l16.4-25.9
		c0.4-0.9,1.3-1.3,2.6-1.3h8.6c2.2,2.2,3.9,3.9,5.6,6h-13L11.8,92.7h76.4L75.7,72.4h-13c1.7-2.2,3.5-3.9,5.6-6H77z"/>
</g>
</svg>
