<?xml version="1.0" encoding="utf-8"?>
<!-- Generator: Adobe Illustrator 21.0.2, SVG Export Plug-In . SVG Version: 6.00 Build 0)  -->
<svg version="1.1" id="Layer_1" xmlns="http://www.w3.org/2000/svg" xmlns:xlink="http://www.w3.org/1999/xlink" x="0px" y="0px"
	 viewBox="0 0 100 100" style="enable-background:new 0 0 100 100;" xml:space="preserve">
<style type="text/css">
	.st0{fill:#5A5A5A;}
</style>
<path class="st0" d="M49.9,97.2H8.7c0.2-17.2-0.5-26.3,10.6-30.4c10.2-3.9,16.2-7.8,16.2-7.8l7.8,24.7l1.1,3.4l3.5-10
	c-8-11.2,0.6-11.7,2.1-11.7l0,0l0,0l0,0l0,0l0,0l0,0c1.5,0,10.2,0.6,2.1,11.7l3.5,9.9l1.1-3.4l7.8-24.6c0,0,6.1,4,16.2,7.8
	C91.8,70.8,91.1,80,91.3,97.2H50.1H49.9z M34.2,9.1l4.4,3.1c1.8-1.2,3.8-1.9,5.8-2.4l0.9-5.3c0.2-1,1-1.6,2-1.6h2.6h2.6
	c1,0,1.8,0.7,2,1.6l0.9,5.3c2,0.5,3.9,1.3,5.7,2.3l4.4-3.2c0.8-0.6,1.9-0.5,2.6,0.2l1.8,1.8l1.8,1.8c0.7,0.7,0.8,1.8,0.2,2.6
	l-3.1,4.4c1.1,1.8,1.8,3.7,2.4,5.7l5.3,0.9c1,0.2,1.6,1,1.7,2V31v2.6c0,1-0.7,1.8-1.6,2l-5.3,0.9c-0.5,2-1.3,3.9-2.3,5.7l3.1,4.4
	c0.6,0.8,0.5,1.9-0.2,2.6L70.1,51l-1.8,1.8c-0.9,1-1.9,1.1-2.8,0.5l-4.4-3.1c-1.7,1.1-3.7,1.8-5.6,2.3l-0.9,5.3c-0.2,1-1,1.6-2,1.6
	H50h-2.6c-1,0-1.8-0.7-2-1.6l-0.9-5.2c-1.9-0.5-3.9-1.3-5.7-2.3l-4.5,3.1c-0.8,0.6-1.9,0.5-2.6-0.2l-1.8-1.8L28,49.6
	c-0.7-0.7-0.8-1.8-0.2-2.6l3.1-4.4c-1.1-1.8-1.8-3.7-2.4-5.7L23.2,36c-1-0.2-1.6-1-1.6-2v-2.6v-2.6c0-1,0.7-1.8,1.6-2l5.2-0.9
	c0.5-1.9,1.3-3.9,2.3-5.7l-3.1-4.5c-0.6-0.8-0.5-1.9,0.2-2.6l1.8-1.9l1.8-1.8C32.3,8.6,33.4,8.5,34.2,9.1z M38.8,31.9l4.1,4.1
	l4.3,4.3l4.3-4.3l9.7-9.7l-4.3-4.2l-9.7,9.7L43,27.7L38.8,31.9z"/>
</svg>
