<?xml version="1.0" encoding="utf-8"?>
<!-- Generator: Adobe Illustrator 21.0.2, SVG Export Plug-In . SVG Version: 6.00 Build 0)  -->
<svg version="1.1" id="Layer_1" xmlns="http://www.w3.org/2000/svg" xmlns:xlink="http://www.w3.org/1999/xlink" x="0px" y="0px"
	 viewBox="0 0 100 100" style="enable-background:new 0 0 100 100;" xml:space="preserve">
<style type="text/css">
	.st0{fill:#5A5A5A;}
</style>
<g>
	<path class="st0" d="M68.5,84.5v-5.1H50.6h-5.1v-5.1V61.5v-2.1c-2-0.3-3.9-0.5-6-0.5c-18.9,0-34,12.6-34,28.1h63.4
		C68.7,86.3,68.5,85.4,68.5,84.5z"/>
</g>
<circle class="st0" cx="40.4" cy="33.3" r="20.5"/>
<path class="st0" d="M75.2,87.1c0.6,0,1.3-0.3,2.1-1l15.6-14.7c2.1-2,2.1-5.1,0-7.1L77.4,49.5c-0.8-0.7-1.5-1.2-2.1-1.2
	c-0.9,0-1.6,0.9-1.6,2.7v10.3H50.6v13h23v10.3C73.6,86.2,74.3,87.1,75.2,87.1z"/>
</svg>
